<svg xmlns="http://www.w3.org/2000/svg" xmlns:xlink="http://www.w3.org/1999/xlink" width="500" zoomAndPan="magnify" viewBox="0 0 375 374.999991" height="500" preserveAspectRatio="xMidYMid meet" version="1.0"><defs><g/><clipPath id="d7b9782b82"><path d="M 189 134 L 242.8125 134 L 242.8125 169 L 189 169 Z M 189 134 " clip-rule="nonzero"/></clipPath><clipPath id="0c4aa647ab"><path d="M 131.8125 134 L 186 134 L 186 169 L 131.8125 169 Z M 131.8125 134 " clip-rule="nonzero"/></clipPath><clipPath id="16d9b9d490"><path d="M 145 172 L 230 172 L 230 199.601562 L 145 199.601562 Z M 145 172 " clip-rule="nonzero"/></clipPath><clipPath id="e6780c4574"><path d="M 140 103.601562 L 238 103.601562 L 238 146 L 140 146 Z M 140 103.601562 " clip-rule="nonzero"/></clipPath></defs><rect x="-37.5" width="450" fill="#ffffff" y="-37.499999" height="449.999989" fill-opacity="1"/><rect x="-37.5" width="450" fill="#000000" y="-37.499999" height="449.999989" fill-opacity="1"/><g clip-path="url(#d7b9782b82)"><path fill="#ffcc00" d="M 235.292969 167.851562 L 242.972656 152.492188 C 243.269531 151.898438 243.238281 151.191406 242.890625 150.625 C 242.539062 150.058594 241.921875 149.710938 241.257812 149.710938 L 222.054688 149.710938 C 221.328125 149.710938 220.664062 150.125 220.339844 150.773438 L 218.515625 154.421875 C 216.945312 152.941406 215.144531 151.78125 213.179688 150.988281 C 215.082031 149.230469 216.296875 146.738281 216.296875 143.953125 C 216.296875 138.660156 211.992188 134.351562 206.695312 134.351562 C 201.398438 134.351562 197.09375 138.660156 197.09375 143.953125 C 197.09375 146.746094 198.3125 149.238281 200.222656 150.996094 C 193.894531 153.566406 189.414062 159.753906 189.414062 166.992188 C 189.414062 168.054688 190.273438 168.914062 191.335938 168.914062 L 199.015625 168.914062 C 200.078125 168.914062 200.933594 168.054688 200.933594 166.992188 C 200.933594 165.933594 200.078125 165.074219 199.015625 165.074219 L 193.390625 165.074219 C 194.328125 158.566406 199.9375 153.554688 206.695312 153.554688 C 210.570312 153.554688 214.117188 155.242188 216.671875 158.109375 L 213.1875 165.074219 L 206.695312 165.074219 C 205.632812 165.074219 204.773438 165.933594 204.773438 166.992188 C 204.773438 168.054688 205.632812 168.914062 206.695312 168.914062 L 233.574219 168.914062 C 234.304688 168.914062 234.96875 168.5 235.292969 167.851562 Z M 200.933594 143.953125 C 200.933594 140.777344 203.519531 138.191406 206.695312 138.191406 C 209.871094 138.191406 212.457031 140.777344 212.457031 143.953125 C 212.457031 147.128906 209.871094 149.710938 206.695312 149.710938 C 203.519531 149.710938 200.933594 147.128906 200.933594 143.953125 Z M 217.480469 165.074219 L 223.242188 153.554688 L 238.152344 153.554688 L 232.390625 165.074219 Z M 217.480469 165.074219 " fill-opacity="1" fill-rule="nonzero"/></g><g clip-path="url(#0c4aa647ab)"><path fill="#ffcc00" d="M 132.101562 150.625 C 131.75 151.191406 131.71875 151.898438 132.015625 152.492188 L 139.695312 167.851562 C 140.023438 168.5 140.6875 168.914062 141.414062 168.914062 L 168.292969 168.914062 C 169.355469 168.914062 170.214844 168.054688 170.214844 166.992188 C 170.214844 165.933594 169.355469 165.074219 168.292969 165.074219 L 161.800781 165.074219 L 158.320312 158.109375 C 160.871094 155.242188 164.414062 153.554688 168.292969 153.554688 C 175.054688 153.554688 180.664062 158.566406 181.597656 165.074219 L 175.972656 165.074219 C 174.914062 165.074219 174.054688 165.933594 174.054688 166.992188 C 174.054688 168.054688 174.914062 168.914062 175.972656 168.914062 L 183.65625 168.914062 C 184.714844 168.914062 185.574219 168.054688 185.574219 166.992188 C 185.574219 159.753906 181.09375 153.566406 174.765625 150.996094 C 176.675781 149.238281 177.894531 146.746094 177.894531 143.953125 C 177.894531 138.660156 173.585938 134.351562 168.292969 134.351562 C 163 134.351562 158.695312 138.660156 158.695312 143.953125 C 158.695312 146.738281 159.90625 149.230469 161.8125 150.988281 C 159.84375 151.78125 158.042969 152.941406 156.472656 154.421875 L 154.652344 150.773438 C 154.324219 150.125 153.660156 149.710938 152.933594 149.710938 L 133.734375 149.710938 C 133.066406 149.710938 132.449219 150.058594 132.101562 150.625 Z M 162.535156 143.953125 C 162.535156 140.777344 165.117188 138.191406 168.292969 138.191406 C 171.46875 138.191406 174.054688 140.777344 174.054688 143.953125 C 174.054688 147.128906 171.46875 149.710938 168.292969 149.710938 C 165.117188 149.710938 162.535156 147.128906 162.535156 143.953125 Z M 151.746094 153.554688 L 157.507812 165.074219 L 142.601562 165.074219 L 136.839844 153.554688 Z M 151.746094 153.554688 " fill-opacity="1" fill-rule="nonzero"/></g><g clip-path="url(#16d9b9d490)"><path fill="#ffcc00" d="M 229.070312 175.632812 C 229.605469 174.71875 229.289062 173.539062 228.371094 173.011719 C 227.46875 172.480469 226.28125 172.789062 225.75 173.714844 C 217.867188 187.332031 203.210938 195.792969 187.496094 195.792969 C 173.597656 195.792969 160.699219 189.25 152.363281 178.253906 L 153.019531 178.359375 C 154.097656 178.527344 155.046875 177.808594 155.214844 176.761719 C 155.382812 175.714844 154.667969 174.734375 153.621094 174.566406 L 148.257812 173.714844 C 147.746094 173.636719 147.238281 173.757812 146.828125 174.058594 C 146.414062 174.359375 146.140625 174.808594 146.0625 175.3125 L 145.210938 180.675781 C 145.046875 181.722656 145.757812 182.707031 146.808594 182.875 C 146.910156 182.890625 147.011719 182.898438 147.109375 182.898438 C 148.039062 182.898438 148.855469 182.222656 149.003906 181.277344 L 149.148438 180.359375 C 158.203125 192.4375 172.300781 199.632812 187.496094 199.632812 C 204.578125 199.632812 220.507812 190.4375 229.070312 175.632812 Z M 229.070312 175.632812 " fill-opacity="1" fill-rule="nonzero"/></g><g clip-path="url(#e6780c4574)"><path fill="#ffcc00" d="M 236.410156 136.191406 C 235.492188 135.679688 234.320312 136.011719 233.800781 136.941406 L 233.390625 137.679688 C 227.285156 117.542969 208.722656 103.632812 187.496094 103.632812 C 163.957031 103.632812 144.046875 120.453125 140.15625 143.636719 C 139.984375 144.679688 140.6875 145.671875 141.734375 145.847656 C 141.839844 145.863281 141.949219 145.871094 142.050781 145.871094 C 142.972656 145.871094 143.785156 145.207031 143.945312 144.269531 C 147.523438 122.949219 165.835938 107.472656 187.496094 107.472656 C 206.984375 107.472656 224.03125 120.210938 229.683594 138.671875 L 229.03125 138.308594 C 228.117188 137.792969 226.9375 138.125 226.421875 139.058594 C 225.90625 139.984375 226.242188 141.152344 227.171875 141.667969 L 231.917969 144.300781 C 232.203125 144.460938 232.527344 144.542969 232.847656 144.542969 C 233.023438 144.542969 233.203125 144.519531 233.378906 144.46875 C 233.867188 144.328125 234.28125 144 234.527344 143.554688 L 237.160156 138.800781 C 237.675781 137.875 237.335938 136.707031 236.410156 136.191406 Z M 236.410156 136.191406 " fill-opacity="1" fill-rule="nonzero"/></g><g fill="#ffcc00" fill-opacity="1"><g transform="translate(105.473132, 238.897797)"><g><path d="M 28.765625 0 L 2.53125 0 L 2.53125 -28.890625 L 28.015625 -28.890625 L 28.015625 -21.921875 L 10.640625 -21.921875 L 10.640625 -17.84375 L 26.359375 -17.84375 L 26.359375 -11.3125 L 10.640625 -11.3125 L 10.640625 -7 L 28.765625 -7 Z M 28.765625 0 "/></g></g></g><g fill="#ffcc00" fill-opacity="1"><g transform="translate(134.038499, 238.897797)"><g><path d="M 0.671875 -7.125 L 8.703125 -7.125 C 8.835938 -6.539062 9.226562 -6.050781 9.875 -5.65625 C 10.519531 -5.257812 11.765625 -5.0625 13.609375 -5.0625 C 14.847656 -5.0625 15.785156 -5.132812 16.421875 -5.28125 C 17.054688 -5.425781 17.484375 -5.609375 17.703125 -5.828125 C 17.929688 -6.054688 18.046875 -6.273438 18.046875 -6.484375 C 18.046875 -6.722656 17.921875 -6.945312 17.671875 -7.15625 C 17.421875 -7.375 16.835938 -7.585938 15.921875 -7.796875 C 15.015625 -8.003906 13.5625 -8.203125 11.5625 -8.390625 C 8.8125 -8.648438 6.675781 -9.078125 5.15625 -9.671875 C 3.644531 -10.265625 2.582031 -11.007812 1.96875 -11.90625 C 1.363281 -12.8125 1.0625 -13.84375 1.0625 -15 C 1.0625 -16.101562 1.453125 -17.15625 2.234375 -18.15625 C 3.015625 -19.164062 4.253906 -19.984375 5.953125 -20.609375 C 7.660156 -21.242188 9.898438 -21.5625 12.671875 -21.5625 C 15.617188 -21.5625 17.984375 -21.21875 19.765625 -20.53125 C 21.546875 -19.851562 22.859375 -18.9375 23.703125 -17.78125 C 24.546875 -16.632812 25.050781 -15.378906 25.21875 -14.015625 L 17.171875 -14.015625 C 17.066406 -14.585938 16.710938 -15.050781 16.109375 -15.40625 C 15.503906 -15.769531 14.359375 -15.953125 12.671875 -15.953125 C 11.054688 -15.953125 10 -15.8125 9.5 -15.53125 C 9 -15.257812 8.75 -14.953125 8.75 -14.609375 C 8.75 -14.335938 8.875 -14.097656 9.125 -13.890625 C 9.375 -13.679688 9.953125 -13.476562 10.859375 -13.28125 C 11.773438 -13.082031 13.222656 -12.890625 15.203125 -12.703125 C 17.941406 -12.441406 20.082031 -12 21.625 -11.375 C 23.164062 -10.757812 24.25 -9.992188 24.875 -9.078125 C 25.5 -8.171875 25.8125 -7.148438 25.8125 -6.015625 C 25.8125 -4.929688 25.40625 -3.878906 24.59375 -2.859375 C 23.789062 -1.847656 22.5 -1.019531 20.71875 -0.375 C 18.9375 0.269531 16.582031 0.59375 13.65625 0.59375 C 10.507812 0.59375 8.015625 0.25 6.171875 -0.4375 C 4.328125 -1.125 2.988281 -2.046875 2.15625 -3.203125 C 1.320312 -4.367188 0.828125 -5.675781 0.671875 -7.125 Z M 0.671875 -7.125 "/></g></g></g><g fill="#ffcc00" fill-opacity="1"><g transform="translate(159.4387, 238.897797)"><g><path d="M 18.359375 -21.5625 C 20.335938 -21.5625 22.097656 -21.109375 23.640625 -20.203125 C 25.191406 -19.296875 26.414062 -18.039062 27.3125 -16.4375 C 28.207031 -14.84375 28.65625 -13.003906 28.65625 -10.921875 L 28.65625 -10.046875 C 28.65625 -7.960938 28.207031 -6.125 27.3125 -4.53125 C 26.414062 -2.9375 25.191406 -1.679688 23.640625 -0.765625 C 22.097656 0.140625 20.335938 0.59375 18.359375 0.59375 C 16.597656 0.59375 15.023438 0.191406 13.640625 -0.609375 C 12.253906 -1.421875 11.164062 -2.550781 10.375 -4 L 10.375 7.921875 L 2.453125 7.921875 L 2.453125 -20.96875 L 6.171875 -20.96875 L 8.828125 -14.609375 C 9.429688 -16.765625 10.570312 -18.460938 12.25 -19.703125 C 13.925781 -20.941406 15.960938 -21.5625 18.359375 -21.5625 Z M 15.546875 -6.171875 C 17.347656 -6.171875 18.65625 -6.550781 19.46875 -7.3125 C 20.289062 -8.082031 20.703125 -9.140625 20.703125 -10.484375 C 20.703125 -11.828125 20.289062 -12.878906 19.46875 -13.640625 C 18.65625 -14.410156 17.347656 -14.796875 15.546875 -14.796875 C 13.785156 -14.796875 12.484375 -14.40625 11.640625 -13.625 C 10.796875 -12.851562 10.375 -11.804688 10.375 -10.484375 C 10.375 -9.191406 10.796875 -8.148438 11.640625 -7.359375 C 12.484375 -6.566406 13.785156 -6.171875 15.546875 -6.171875 Z M 15.546875 -6.171875 "/></g></g></g><g fill="#ffcc00" fill-opacity="1"><g transform="translate(187.924938, 238.897797)"><g><path d="M 13.734375 -21.5625 C 17.898438 -21.5625 20.945312 -20.664062 22.875 -18.875 C 24.800781 -17.082031 25.765625 -14.472656 25.765625 -11.046875 L 25.765625 0 L 22 0 L 19.59375 -5.578125 C 18.875 -3.734375 17.601562 -2.242188 15.78125 -1.109375 C 13.96875 0.0234375 11.660156 0.59375 8.859375 0.59375 C 6.253906 0.59375 4.332031 0.0625 3.09375 -1 C 1.851562 -2.070312 1.234375 -3.390625 1.234375 -4.953125 C 1.234375 -7.140625 2.191406 -8.875 4.109375 -10.15625 C 6.035156 -11.4375 9.269531 -12.3125 13.8125 -12.78125 L 17.84375 -13.140625 C 17.71875 -14.015625 17.34375 -14.648438 16.71875 -15.046875 C 16.101562 -15.441406 15.109375 -15.640625 13.734375 -15.640625 C 12.441406 -15.640625 11.523438 -15.457031 10.984375 -15.09375 C 10.441406 -14.738281 10.066406 -14.257812 9.859375 -13.65625 L 1.734375 -13.65625 C 1.972656 -15.15625 2.515625 -16.503906 3.359375 -17.703125 C 4.203125 -18.910156 5.460938 -19.851562 7.140625 -20.53125 C 8.816406 -21.21875 11.015625 -21.5625 13.734375 -21.5625 Z M 11.515625 -5.1875 C 12.941406 -5.1875 14.132812 -5.398438 15.09375 -5.828125 C 16.0625 -6.265625 16.796875 -6.789062 17.296875 -7.40625 C 17.796875 -8.03125 18.046875 -8.632812 18.046875 -9.21875 L 15.546875 -9.03125 C 13.335938 -8.757812 11.742188 -8.425781 10.765625 -8.03125 C 9.785156 -7.632812 9.296875 -7.117188 9.296875 -6.484375 C 9.296875 -6.117188 9.460938 -5.8125 9.796875 -5.5625 C 10.128906 -5.3125 10.703125 -5.1875 11.515625 -5.1875 Z M 11.515625 -5.1875 "/></g></g></g><g fill="#ffcc00" fill-opacity="1"><g transform="translate(214.274692, 238.897797)"><g><path d="M 14.015625 -5.890625 C 15.410156 -5.890625 16.460938 -6.128906 17.171875 -6.609375 C 17.890625 -7.085938 18.378906 -7.75 18.640625 -8.59375 L 26.953125 -8.59375 C 26.585938 -5.945312 25.429688 -3.789062 23.484375 -2.125 C 21.546875 -0.46875 18.769531 0.4375 15.15625 0.59375 L 13.890625 1.859375 C 14.597656 1.546875 15.390625 1.390625 16.265625 1.390625 C 17.691406 1.390625 18.757812 1.710938 19.46875 2.359375 C 20.1875 3.003906 20.546875 3.800781 20.546875 4.75 C 20.546875 5.695312 20.078125 6.515625 19.140625 7.203125 C 18.203125 7.890625 16.519531 8.234375 14.09375 8.234375 C 11.769531 8.234375 10.144531 7.890625 9.21875 7.203125 C 8.300781 6.515625 7.8125 5.707031 7.75 4.78125 L 12.15625 4.78125 C 12.207031 4.96875 12.367188 5.144531 12.640625 5.3125 C 12.921875 5.488281 13.457031 5.578125 14.25 5.578125 C 15.09375 5.578125 15.660156 5.476562 15.953125 5.28125 C 16.242188 5.082031 16.390625 4.851562 16.390625 4.59375 C 16.390625 4.320312 16.25 4.09375 15.96875 3.90625 C 15.6875 3.726562 15.164062 3.640625 14.40625 3.640625 C 13.820312 3.640625 13.359375 3.691406 13.015625 3.796875 C 12.671875 3.898438 12.394531 4.003906 12.1875 4.109375 L 8.859375 2.65625 L 10.765625 0.3125 C 7.597656 -0.207031 5.195312 -1.40625 3.5625 -3.28125 C 1.925781 -5.15625 1.109375 -7.410156 1.109375 -10.046875 L 1.109375 -10.921875 C 1.109375 -12.984375 1.601562 -14.816406 2.59375 -16.421875 C 3.582031 -18.035156 5.050781 -19.296875 7 -20.203125 C 8.957031 -21.109375 11.375 -21.5625 14.25 -21.5625 C 18.125 -21.5625 21.097656 -20.726562 23.171875 -19.0625 C 25.242188 -17.40625 26.488281 -15.179688 26.90625 -12.390625 L 18.609375 -12.390625 C 18.335938 -13.234375 17.851562 -13.890625 17.15625 -14.359375 C 16.457031 -14.835938 15.410156 -15.078125 14.015625 -15.078125 C 12.378906 -15.078125 11.144531 -14.679688 10.3125 -13.890625 C 9.476562 -13.097656 9.0625 -11.960938 9.0625 -10.484375 C 9.0625 -9.035156 9.476562 -7.90625 10.3125 -7.09375 C 11.144531 -6.289062 12.378906 -5.890625 14.015625 -5.890625 Z M 14.015625 -5.890625 "/></g></g></g><g fill="#ffcc00" fill-opacity="1"><g transform="translate(240.980526, 238.897797)"><g><path d="M 14.25 0.59375 C 11.394531 0.59375 8.988281 0.132812 7.03125 -0.78125 C 5.082031 -1.707031 3.609375 -2.972656 2.609375 -4.578125 C 1.609375 -6.191406 1.109375 -8.015625 1.109375 -10.046875 L 1.109375 -10.921875 C 1.109375 -12.984375 1.609375 -14.8125 2.609375 -16.40625 C 3.609375 -18 5.082031 -19.253906 7.03125 -20.171875 C 8.988281 -21.097656 11.394531 -21.5625 14.25 -21.5625 C 17.125 -21.5625 19.535156 -21.097656 21.484375 -20.171875 C 23.441406 -19.253906 24.921875 -18 25.921875 -16.40625 C 26.921875 -14.8125 27.421875 -12.984375 27.421875 -10.921875 L 27.421875 -10.046875 C 27.421875 -8.015625 26.921875 -6.191406 25.921875 -4.578125 C 24.921875 -2.972656 23.441406 -1.707031 21.484375 -0.78125 C 19.535156 0.132812 17.125 0.59375 14.25 0.59375 Z M 14.25 -5.859375 C 16.039062 -5.859375 17.359375 -6.257812 18.203125 -7.0625 C 19.046875 -7.863281 19.46875 -9.03125 19.46875 -10.5625 C 19.46875 -12.019531 19.046875 -13.144531 18.203125 -13.9375 C 17.359375 -14.726562 16.039062 -15.125 14.25 -15.125 C 12.476562 -15.125 11.171875 -14.726562 10.328125 -13.9375 C 9.484375 -13.144531 9.0625 -12.019531 9.0625 -10.5625 C 9.0625 -9.03125 9.484375 -7.863281 10.328125 -7.0625 C 11.171875 -6.257812 12.476562 -5.859375 14.25 -5.859375 Z M 14.25 -5.859375 "/></g></g></g><g fill="#ffcc00" fill-opacity="1"><g transform="translate(206.209744, 266.338136)"><g><path d="M 15.796875 -17.296875 L 15.796875 -15.34375 L 4.234375 -15.34375 L 4.234375 -9.609375 L 14.828125 -9.609375 L 14.828125 -7.671875 L 4.234375 -7.671875 L 4.234375 0 L 2.015625 0 L 2.015625 -17.296875 Z M 15.796875 -17.296875 "/></g></g></g><g fill="#ffcc00" fill-opacity="1"><g transform="translate(222.88668, 266.338136)"><g><path d="M 7.203125 -14.265625 L 9.140625 -14.265625 L 12.453125 -17.984375 L 9.671875 -17.984375 Z M 8.21875 -12.796875 C 10.507812 -12.796875 12.164062 -12.296875 13.1875 -11.296875 C 14.21875 -10.304688 14.734375 -8.800781 14.734375 -6.78125 L 14.734375 0 L 13.34375 0 L 12.890625 -3.984375 C 12.398438 -2.742188 11.535156 -1.726562 10.296875 -0.9375 C 9.066406 -0.15625 7.566406 0.234375 5.796875 0.234375 C 4.835938 0.234375 4.019531 0.0820312 3.34375 -0.21875 C 2.675781 -0.53125 2.171875 -0.941406 1.828125 -1.453125 C 1.492188 -1.972656 1.328125 -2.523438 1.328125 -3.109375 C 1.328125 -3.859375 1.550781 -4.550781 2 -5.1875 C 2.445312 -5.820312 3.1875 -6.359375 4.21875 -6.796875 C 5.257812 -7.242188 6.664062 -7.550781 8.4375 -7.71875 L 12.53125 -8.09375 C 12.375 -9.09375 11.96875 -9.8125 11.3125 -10.25 C 10.65625 -10.695312 9.632812 -10.921875 8.25 -10.921875 C 7.269531 -10.921875 6.484375 -10.8125 5.890625 -10.59375 C 5.296875 -10.382812 4.84375 -10.09375 4.53125 -9.71875 C 4.226562 -9.351562 4.003906 -8.925781 3.859375 -8.4375 L 1.65625 -8.4375 C 1.800781 -9.257812 2.117188 -9.992188 2.609375 -10.640625 C 3.097656 -11.296875 3.800781 -11.816406 4.71875 -12.203125 C 5.644531 -12.597656 6.8125 -12.796875 8.21875 -12.796875 Z M 6.34375 -1.640625 C 7.613281 -1.640625 8.71875 -1.878906 9.65625 -2.359375 C 10.59375 -2.835938 11.320312 -3.457031 11.84375 -4.21875 C 12.363281 -4.976562 12.625 -5.757812 12.625 -6.5625 L 9.671875 -6.28125 C 8.003906 -6.125 6.722656 -5.894531 5.828125 -5.59375 C 4.941406 -5.300781 4.332031 -4.96875 4 -4.59375 C 3.664062 -4.226562 3.492188 -3.84375 3.484375 -3.4375 C 3.460938 -2.945312 3.675781 -2.523438 4.125 -2.171875 C 4.582031 -1.816406 5.320312 -1.640625 6.34375 -1.640625 Z M 6.34375 -1.640625 "/></g></g></g><g fill="#ffcc00" fill-opacity="1"><g transform="translate(239.303043, 266.338136)"><g><path d="M 1.109375 -6.0625 L 1.109375 -6.484375 C 1.109375 -7.722656 1.390625 -8.816406 1.953125 -9.765625 C 2.515625 -10.710938 3.335938 -11.453125 4.421875 -11.984375 C 5.503906 -12.523438 6.8125 -12.796875 8.34375 -12.796875 C 10.4375 -12.796875 12.054688 -12.320312 13.203125 -11.375 C 14.347656 -10.4375 15.046875 -9.21875 15.296875 -7.71875 L 13.09375 -7.71875 C 12.875 -8.726562 12.394531 -9.515625 11.65625 -10.078125 C 10.914062 -10.640625 9.800781 -10.921875 8.3125 -10.921875 C 6.625 -10.921875 5.359375 -10.519531 4.515625 -9.71875 C 3.679688 -8.925781 3.265625 -7.78125 3.265625 -6.28125 C 3.265625 -4.789062 3.679688 -3.644531 4.515625 -2.84375 C 5.359375 -2.039062 6.625 -1.640625 8.3125 -1.640625 C 9.800781 -1.640625 10.914062 -1.914062 11.65625 -2.46875 C 12.394531 -3.03125 12.882812 -3.816406 13.125 -4.828125 L 15.328125 -4.828125 C 15.078125 -3.347656 14.378906 -2.132812 13.234375 -1.1875 C 12.085938 -0.238281 10.457031 0.234375 8.34375 0.234375 C 6.8125 0.234375 5.503906 -0.03125 4.421875 -0.5625 C 3.335938 -1.101562 2.515625 -1.847656 1.953125 -2.796875 C 1.390625 -3.742188 1.109375 -4.832031 1.109375 -6.0625 Z M 1.109375 -6.0625 "/></g></g></g><g fill="#ffcc00" fill-opacity="1"><g transform="translate(255.695717, 266.338136)"><g><path d="M 4.546875 -16.109375 C 4.546875 -16.515625 4.40625 -16.851562 4.125 -17.125 C 3.851562 -17.394531 3.488281 -17.53125 3.03125 -17.53125 C 2.570312 -17.53125 2.203125 -17.394531 1.921875 -17.125 C 1.648438 -16.851562 1.515625 -16.515625 1.515625 -16.109375 C 1.515625 -15.660156 1.648438 -15.300781 1.921875 -15.03125 C 2.203125 -14.769531 2.570312 -14.640625 3.03125 -14.640625 C 3.488281 -14.640625 3.851562 -14.769531 4.125 -15.03125 C 4.40625 -15.300781 4.546875 -15.660156 4.546875 -16.109375 Z M 4.09375 0 L 1.96875 0 L 1.96875 -12.546875 L 4.09375 -12.546875 Z M 4.09375 0 "/></g></g></g><g fill="#ffcc00" fill-opacity="1"><g transform="translate(261.760057, 266.338136)"><g><path d="M 4.140625 -17.296875 L 4.140625 0 L 2.015625 0 L 2.015625 -17.296875 Z M 4.140625 -17.296875 "/></g></g></g></svg>