<svg xmlns="http://www.w3.org/2000/svg" xmlns:xlink="http://www.w3.org/1999/xlink" width="500" zoomAndPan="magnify" viewBox="0 0 375 374.999991" height="500" preserveAspectRatio="xMidYMid meet" version="1.0"><defs><g/><clipPath id="e6e36bd030"><path d="M 189 122 L 242.8125 122 L 242.8125 157 L 189 157 Z M 189 122 " clip-rule="nonzero"/></clipPath><clipPath id="dff0dcba10"><path d="M 131.8125 122 L 186 122 L 186 157 L 131.8125 157 Z M 131.8125 122 " clip-rule="nonzero"/></clipPath><clipPath id="51a88e96cb"><path d="M 145 160 L 230 160 L 230 187.3125 L 145 187.3125 Z M 145 160 " clip-rule="nonzero"/></clipPath><clipPath id="aeab71b928"><path d="M 140 91.3125 L 238 91.3125 L 238 134 L 140 134 Z M 140 91.3125 " clip-rule="nonzero"/></clipPath></defs><rect x="-37.5" width="450" fill="#ffffff" y="-37.499999" height="449.999989" fill-opacity="1"/><rect x="-37.5" width="450" fill="#ffcc00" y="-37.499999" height="449.999989" fill-opacity="1"/><g clip-path="url(#e6e36bd030)"><path fill="#000000" d="M 234.957031 155.519531 L 242.609375 140.171875 C 242.90625 139.574219 242.875 138.871094 242.527344 138.304688 C 242.175781 137.738281 241.5625 137.394531 240.898438 137.394531 L 221.761719 137.394531 C 221.035156 137.394531 220.375 137.804688 220.050781 138.453125 L 218.230469 142.097656 C 216.667969 140.621094 214.875 139.460938 212.914062 138.667969 C 214.8125 136.914062 216.019531 134.421875 216.019531 131.636719 C 216.019531 126.347656 211.730469 122.042969 206.449219 122.042969 C 201.171875 122.042969 196.882812 126.347656 196.882812 131.636719 C 196.882812 134.425781 198.097656 136.921875 200 138.675781 C 193.695312 141.242188 189.226562 147.429688 189.226562 154.664062 C 189.226562 155.722656 190.082031 156.582031 191.140625 156.582031 L 198.796875 156.582031 C 199.855469 156.582031 200.710938 155.722656 200.710938 154.664062 C 200.710938 153.601562 199.855469 152.742188 198.796875 152.742188 L 193.1875 152.742188 C 194.125 146.242188 199.714844 141.230469 206.449219 141.230469 C 210.316406 141.230469 213.847656 142.917969 216.394531 145.785156 L 212.921875 152.742188 L 206.449219 152.742188 C 205.394531 152.742188 204.539062 153.601562 204.539062 154.664062 C 204.539062 155.722656 205.394531 156.582031 206.449219 156.582031 L 233.242188 156.582031 C 233.96875 156.582031 234.628906 156.167969 234.957031 155.519531 Z M 200.710938 131.636719 C 200.710938 128.460938 203.285156 125.878906 206.449219 125.878906 C 209.617188 125.878906 212.191406 128.460938 212.191406 131.636719 C 212.191406 134.8125 209.617188 137.394531 206.449219 137.394531 C 203.285156 137.394531 200.710938 134.8125 200.710938 131.636719 Z M 217.199219 152.742188 L 222.941406 141.230469 L 237.804688 141.230469 L 232.0625 152.742188 Z M 217.199219 152.742188 " fill-opacity="1" fill-rule="nonzero"/></g><g clip-path="url(#dff0dcba10)"><path fill="#000000" d="M 132.097656 138.304688 C 131.75 138.871094 131.71875 139.574219 132.015625 140.171875 L 139.671875 155.519531 C 139.996094 156.167969 140.65625 156.582031 141.382812 156.582031 L 168.175781 156.582031 C 169.234375 156.582031 170.089844 155.722656 170.089844 154.664062 C 170.089844 153.601562 169.234375 152.742188 168.175781 152.742188 L 161.703125 152.742188 L 158.230469 145.785156 C 160.777344 142.917969 164.308594 141.230469 168.175781 141.230469 C 174.914062 141.230469 180.503906 146.242188 181.433594 152.742188 L 175.832031 152.742188 C 174.773438 152.742188 173.917969 153.601562 173.917969 154.664062 C 173.917969 155.722656 174.773438 156.582031 175.832031 156.582031 L 183.484375 156.582031 C 184.542969 156.582031 185.398438 155.722656 185.398438 154.664062 C 185.398438 147.429688 180.933594 141.242188 174.625 138.675781 C 176.53125 136.921875 177.742188 134.425781 177.742188 131.636719 C 177.742188 126.347656 173.449219 122.042969 168.175781 122.042969 C 162.898438 122.042969 158.605469 126.347656 158.605469 131.636719 C 158.605469 134.421875 159.816406 136.910156 161.710938 138.664062 C 159.753906 139.460938 157.957031 140.617188 156.394531 142.097656 L 154.578125 138.453125 C 154.25 137.804688 153.589844 137.394531 152.863281 137.394531 L 133.726562 137.394531 C 133.0625 137.394531 132.449219 137.738281 132.097656 138.304688 Z M 162.433594 131.636719 C 162.433594 128.460938 165.007812 125.878906 168.175781 125.878906 C 171.339844 125.878906 173.917969 128.460938 173.917969 131.636719 C 173.917969 134.8125 171.339844 137.394531 168.175781 137.394531 C 165.007812 137.394531 162.433594 134.8125 162.433594 131.636719 Z M 151.683594 141.230469 L 157.421875 152.742188 L 142.566406 152.742188 L 136.824219 141.230469 Z M 151.683594 141.230469 " fill-opacity="1" fill-rule="nonzero"/></g><g clip-path="url(#51a88e96cb)"><path fill="#000000" d="M 228.753906 163.296875 C 229.285156 162.382812 228.972656 161.207031 228.054688 160.679688 C 227.15625 160.144531 225.972656 160.457031 225.441406 161.378906 C 217.585938 174.992188 202.976562 183.445312 187.3125 183.445312 C 173.460938 183.445312 160.601562 176.90625 152.292969 165.917969 L 152.949219 166.023438 C 154.023438 166.191406 154.972656 165.472656 155.140625 164.425781 C 155.304688 163.378906 154.59375 162.398438 153.550781 162.230469 L 148.207031 161.378906 C 147.695312 161.304688 147.1875 161.425781 146.78125 161.722656 C 146.367188 162.023438 146.09375 162.472656 146.015625 162.976562 L 145.167969 168.339844 C 145.003906 169.382812 145.714844 170.367188 146.757812 170.535156 C 146.859375 170.550781 146.960938 170.558594 147.058594 170.558594 C 147.984375 170.558594 148.800781 169.882812 148.949219 168.9375 L 149.09375 168.019531 C 158.117188 180.09375 172.167969 187.285156 187.3125 187.285156 C 204.339844 187.285156 220.21875 178.09375 228.753906 163.296875 Z M 228.753906 163.296875 " fill-opacity="1" fill-rule="nonzero"/></g><g clip-path="url(#aeab71b928)"><path fill="#000000" d="M 236.070312 123.878906 C 235.152344 123.367188 233.984375 123.699219 233.46875 124.628906 L 233.0625 125.367188 C 226.976562 105.242188 208.472656 91.339844 187.3125 91.339844 C 163.851562 91.339844 144.007812 108.152344 140.128906 131.320312 C 139.957031 132.363281 140.660156 133.351562 141.703125 133.527344 C 141.808594 133.546875 141.914062 133.554688 142.019531 133.554688 C 142.9375 133.554688 143.746094 132.890625 143.90625 131.953125 C 147.472656 110.644531 165.726562 95.175781 187.3125 95.175781 C 206.738281 95.175781 223.730469 107.910156 229.363281 126.359375 L 228.714844 125.996094 C 227.800781 125.480469 226.628906 125.8125 226.113281 126.742188 C 225.601562 127.671875 225.933594 128.839844 226.859375 129.351562 L 231.59375 131.984375 C 231.875 132.144531 232.199219 132.226562 232.519531 132.226562 C 232.695312 132.226562 232.875 132.203125 233.046875 132.152344 C 233.535156 132.011719 233.945312 131.683594 234.195312 131.238281 L 236.816406 126.488281 C 237.328125 125.5625 236.992188 124.394531 236.070312 123.878906 Z M 236.070312 123.878906 " fill-opacity="1" fill-rule="nonzero"/></g><g fill="#000000" fill-opacity="1"><g transform="translate(105.473132, 226.606061)"><g><path d="M 28.765625 0 L 2.53125 0 L 2.53125 -28.890625 L 28.015625 -28.890625 L 28.015625 -21.921875 L 10.640625 -21.921875 L 10.640625 -17.84375 L 26.359375 -17.84375 L 26.359375 -11.3125 L 10.640625 -11.3125 L 10.640625 -7 L 28.765625 -7 Z M 28.765625 0 "/></g></g></g><g fill="#000000" fill-opacity="1"><g transform="translate(134.038499, 226.606061)"><g><path d="M 0.671875 -7.125 L 8.703125 -7.125 C 8.835938 -6.539062 9.226562 -6.050781 9.875 -5.65625 C 10.519531 -5.257812 11.765625 -5.0625 13.609375 -5.0625 C 14.847656 -5.0625 15.785156 -5.132812 16.421875 -5.28125 C 17.054688 -5.425781 17.484375 -5.609375 17.703125 -5.828125 C 17.929688 -6.054688 18.046875 -6.273438 18.046875 -6.484375 C 18.046875 -6.722656 17.921875 -6.945312 17.671875 -7.15625 C 17.421875 -7.375 16.835938 -7.585938 15.921875 -7.796875 C 15.015625 -8.003906 13.5625 -8.203125 11.5625 -8.390625 C 8.8125 -8.648438 6.675781 -9.078125 5.15625 -9.671875 C 3.644531 -10.265625 2.582031 -11.007812 1.96875 -11.90625 C 1.363281 -12.8125 1.0625 -13.84375 1.0625 -15 C 1.0625 -16.101562 1.453125 -17.15625 2.234375 -18.15625 C 3.015625 -19.164062 4.253906 -19.984375 5.953125 -20.609375 C 7.660156 -21.242188 9.898438 -21.5625 12.671875 -21.5625 C 15.617188 -21.5625 17.984375 -21.21875 19.765625 -20.53125 C 21.546875 -19.851562 22.859375 -18.9375 23.703125 -17.78125 C 24.546875 -16.632812 25.050781 -15.378906 25.21875 -14.015625 L 17.171875 -14.015625 C 17.066406 -14.585938 16.710938 -15.050781 16.109375 -15.40625 C 15.503906 -15.769531 14.359375 -15.953125 12.671875 -15.953125 C 11.054688 -15.953125 10 -15.8125 9.5 -15.53125 C 9 -15.257812 8.75 -14.953125 8.75 -14.609375 C 8.75 -14.335938 8.875 -14.097656 9.125 -13.890625 C 9.375 -13.679688 9.953125 -13.476562 10.859375 -13.28125 C 11.773438 -13.082031 13.222656 -12.890625 15.203125 -12.703125 C 17.941406 -12.441406 20.082031 -12 21.625 -11.375 C 23.164062 -10.757812 24.25 -9.992188 24.875 -9.078125 C 25.5 -8.171875 25.8125 -7.148438 25.8125 -6.015625 C 25.8125 -4.929688 25.40625 -3.878906 24.59375 -2.859375 C 23.789062 -1.847656 22.5 -1.019531 20.71875 -0.375 C 18.9375 0.269531 16.582031 0.59375 13.65625 0.59375 C 10.507812 0.59375 8.015625 0.25 6.171875 -0.4375 C 4.328125 -1.125 2.988281 -2.046875 2.15625 -3.203125 C 1.320312 -4.367188 0.828125 -5.675781 0.671875 -7.125 Z M 0.671875 -7.125 "/></g></g></g><g fill="#000000" fill-opacity="1"><g transform="translate(159.4387, 226.606061)"><g><path d="M 18.359375 -21.5625 C 20.335938 -21.5625 22.097656 -21.109375 23.640625 -20.203125 C 25.191406 -19.296875 26.414062 -18.039062 27.3125 -16.4375 C 28.207031 -14.84375 28.65625 -13.003906 28.65625 -10.921875 L 28.65625 -10.046875 C 28.65625 -7.960938 28.207031 -6.125 27.3125 -4.53125 C 26.414062 -2.9375 25.191406 -1.679688 23.640625 -0.765625 C 22.097656 0.140625 20.335938 0.59375 18.359375 0.59375 C 16.597656 0.59375 15.023438 0.191406 13.640625 -0.609375 C 12.253906 -1.421875 11.164062 -2.550781 10.375 -4 L 10.375 7.921875 L 2.453125 7.921875 L 2.453125 -20.96875 L 6.171875 -20.96875 L 8.828125 -14.609375 C 9.429688 -16.765625 10.570312 -18.460938 12.25 -19.703125 C 13.925781 -20.941406 15.960938 -21.5625 18.359375 -21.5625 Z M 15.546875 -6.171875 C 17.347656 -6.171875 18.65625 -6.550781 19.46875 -7.3125 C 20.289062 -8.082031 20.703125 -9.140625 20.703125 -10.484375 C 20.703125 -11.828125 20.289062 -12.878906 19.46875 -13.640625 C 18.65625 -14.410156 17.347656 -14.796875 15.546875 -14.796875 C 13.785156 -14.796875 12.484375 -14.40625 11.640625 -13.625 C 10.796875 -12.851562 10.375 -11.804688 10.375 -10.484375 C 10.375 -9.191406 10.796875 -8.148438 11.640625 -7.359375 C 12.484375 -6.566406 13.785156 -6.171875 15.546875 -6.171875 Z M 15.546875 -6.171875 "/></g></g></g><g fill="#000000" fill-opacity="1"><g transform="translate(187.924938, 226.606061)"><g><path d="M 13.734375 -21.5625 C 17.898438 -21.5625 20.945312 -20.664062 22.875 -18.875 C 24.800781 -17.082031 25.765625 -14.472656 25.765625 -11.046875 L 25.765625 0 L 22 0 L 19.59375 -5.578125 C 18.875 -3.734375 17.601562 -2.242188 15.78125 -1.109375 C 13.96875 0.0234375 11.660156 0.59375 8.859375 0.59375 C 6.253906 0.59375 4.332031 0.0625 3.09375 -1 C 1.851562 -2.070312 1.234375 -3.390625 1.234375 -4.953125 C 1.234375 -7.140625 2.191406 -8.875 4.109375 -10.15625 C 6.035156 -11.4375 9.269531 -12.3125 13.8125 -12.78125 L 17.84375 -13.140625 C 17.71875 -14.015625 17.34375 -14.648438 16.71875 -15.046875 C 16.101562 -15.441406 15.109375 -15.640625 13.734375 -15.640625 C 12.441406 -15.640625 11.523438 -15.457031 10.984375 -15.09375 C 10.441406 -14.738281 10.066406 -14.257812 9.859375 -13.65625 L 1.734375 -13.65625 C 1.972656 -15.15625 2.515625 -16.503906 3.359375 -17.703125 C 4.203125 -18.910156 5.460938 -19.851562 7.140625 -20.53125 C 8.816406 -21.21875 11.015625 -21.5625 13.734375 -21.5625 Z M 11.515625 -5.1875 C 12.941406 -5.1875 14.132812 -5.398438 15.09375 -5.828125 C 16.0625 -6.265625 16.796875 -6.789062 17.296875 -7.40625 C 17.796875 -8.03125 18.046875 -8.632812 18.046875 -9.21875 L 15.546875 -9.03125 C 13.335938 -8.757812 11.742188 -8.425781 10.765625 -8.03125 C 9.785156 -7.632812 9.296875 -7.117188 9.296875 -6.484375 C 9.296875 -6.117188 9.460938 -5.8125 9.796875 -5.5625 C 10.128906 -5.3125 10.703125 -5.1875 11.515625 -5.1875 Z M 11.515625 -5.1875 "/></g></g></g><g fill="#000000" fill-opacity="1"><g transform="translate(214.274692, 226.606061)"><g><path d="M 14.015625 -5.890625 C 15.410156 -5.890625 16.460938 -6.128906 17.171875 -6.609375 C 17.890625 -7.085938 18.378906 -7.75 18.640625 -8.59375 L 26.953125 -8.59375 C 26.585938 -5.945312 25.429688 -3.789062 23.484375 -2.125 C 21.546875 -0.46875 18.769531 0.4375 15.15625 0.59375 L 13.890625 1.859375 C 14.597656 1.546875 15.390625 1.390625 16.265625 1.390625 C 17.691406 1.390625 18.757812 1.710938 19.46875 2.359375 C 20.1875 3.003906 20.546875 3.800781 20.546875 4.75 C 20.546875 5.695312 20.078125 6.515625 19.140625 7.203125 C 18.203125 7.890625 16.519531 8.234375 14.09375 8.234375 C 11.769531 8.234375 10.144531 7.890625 9.21875 7.203125 C 8.300781 6.515625 7.8125 5.707031 7.75 4.78125 L 12.15625 4.78125 C 12.207031 4.96875 12.367188 5.144531 12.640625 5.3125 C 12.921875 5.488281 13.457031 5.578125 14.25 5.578125 C 15.09375 5.578125 15.660156 5.476562 15.953125 5.28125 C 16.242188 5.082031 16.390625 4.851562 16.390625 4.59375 C 16.390625 4.320312 16.25 4.09375 15.96875 3.90625 C 15.6875 3.726562 15.164062 3.640625 14.40625 3.640625 C 13.820312 3.640625 13.359375 3.691406 13.015625 3.796875 C 12.671875 3.898438 12.394531 4.003906 12.1875 4.109375 L 8.859375 2.65625 L 10.765625 0.3125 C 7.597656 -0.207031 5.195312 -1.40625 3.5625 -3.28125 C 1.925781 -5.15625 1.109375 -7.410156 1.109375 -10.046875 L 1.109375 -10.921875 C 1.109375 -12.984375 1.601562 -14.816406 2.59375 -16.421875 C 3.582031 -18.035156 5.050781 -19.296875 7 -20.203125 C 8.957031 -21.109375 11.375 -21.5625 14.25 -21.5625 C 18.125 -21.5625 21.097656 -20.726562 23.171875 -19.0625 C 25.242188 -17.40625 26.488281 -15.179688 26.90625 -12.390625 L 18.609375 -12.390625 C 18.335938 -13.234375 17.851562 -13.890625 17.15625 -14.359375 C 16.457031 -14.835938 15.410156 -15.078125 14.015625 -15.078125 C 12.378906 -15.078125 11.144531 -14.679688 10.3125 -13.890625 C 9.476562 -13.097656 9.0625 -11.960938 9.0625 -10.484375 C 9.0625 -9.035156 9.476562 -7.90625 10.3125 -7.09375 C 11.144531 -6.289062 12.378906 -5.890625 14.015625 -5.890625 Z M 14.015625 -5.890625 "/></g></g></g><g fill="#000000" fill-opacity="1"><g transform="translate(240.980526, 226.606061)"><g><path d="M 14.25 0.59375 C 11.394531 0.59375 8.988281 0.132812 7.03125 -0.78125 C 5.082031 -1.707031 3.609375 -2.972656 2.609375 -4.578125 C 1.609375 -6.191406 1.109375 -8.015625 1.109375 -10.046875 L 1.109375 -10.921875 C 1.109375 -12.984375 1.609375 -14.8125 2.609375 -16.40625 C 3.609375 -18 5.082031 -19.253906 7.03125 -20.171875 C 8.988281 -21.097656 11.394531 -21.5625 14.25 -21.5625 C 17.125 -21.5625 19.535156 -21.097656 21.484375 -20.171875 C 23.441406 -19.253906 24.921875 -18 25.921875 -16.40625 C 26.921875 -14.8125 27.421875 -12.984375 27.421875 -10.921875 L 27.421875 -10.046875 C 27.421875 -8.015625 26.921875 -6.191406 25.921875 -4.578125 C 24.921875 -2.972656 23.441406 -1.707031 21.484375 -0.78125 C 19.535156 0.132812 17.125 0.59375 14.25 0.59375 Z M 14.25 -5.859375 C 16.039062 -5.859375 17.359375 -6.257812 18.203125 -7.0625 C 19.046875 -7.863281 19.46875 -9.03125 19.46875 -10.5625 C 19.46875 -12.019531 19.046875 -13.144531 18.203125 -13.9375 C 17.359375 -14.726562 16.039062 -15.125 14.25 -15.125 C 12.476562 -15.125 11.171875 -14.726562 10.328125 -13.9375 C 9.484375 -13.144531 9.0625 -12.019531 9.0625 -10.5625 C 9.0625 -9.03125 9.484375 -7.863281 10.328125 -7.0625 C 11.171875 -6.257812 12.476562 -5.859375 14.25 -5.859375 Z M 14.25 -5.859375 "/></g></g></g><g fill="#000000" fill-opacity="1"><g transform="translate(206.209744, 254.046412)"><g><path d="M 15.796875 -17.296875 L 15.796875 -15.34375 L 4.234375 -15.34375 L 4.234375 -9.609375 L 14.828125 -9.609375 L 14.828125 -7.671875 L 4.234375 -7.671875 L 4.234375 0 L 2.015625 0 L 2.015625 -17.296875 Z M 15.796875 -17.296875 "/></g></g></g><g fill="#000000" fill-opacity="1"><g transform="translate(222.88668, 254.046412)"><g><path d="M 7.203125 -14.265625 L 9.140625 -14.265625 L 12.453125 -17.984375 L 9.671875 -17.984375 Z M 8.21875 -12.796875 C 10.507812 -12.796875 12.164062 -12.296875 13.1875 -11.296875 C 14.21875 -10.304688 14.734375 -8.800781 14.734375 -6.78125 L 14.734375 0 L 13.34375 0 L 12.890625 -3.984375 C 12.398438 -2.742188 11.535156 -1.726562 10.296875 -0.9375 C 9.066406 -0.15625 7.566406 0.234375 5.796875 0.234375 C 4.835938 0.234375 4.019531 0.0820312 3.34375 -0.21875 C 2.675781 -0.53125 2.171875 -0.941406 1.828125 -1.453125 C 1.492188 -1.972656 1.328125 -2.523438 1.328125 -3.109375 C 1.328125 -3.859375 1.550781 -4.550781 2 -5.1875 C 2.445312 -5.820312 3.1875 -6.359375 4.21875 -6.796875 C 5.257812 -7.242188 6.664062 -7.550781 8.4375 -7.71875 L 12.53125 -8.09375 C 12.375 -9.09375 11.96875 -9.8125 11.3125 -10.25 C 10.65625 -10.695312 9.632812 -10.921875 8.25 -10.921875 C 7.269531 -10.921875 6.484375 -10.8125 5.890625 -10.59375 C 5.296875 -10.382812 4.84375 -10.09375 4.53125 -9.71875 C 4.226562 -9.351562 4.003906 -8.925781 3.859375 -8.4375 L 1.65625 -8.4375 C 1.800781 -9.257812 2.117188 -9.992188 2.609375 -10.640625 C 3.097656 -11.296875 3.800781 -11.816406 4.71875 -12.203125 C 5.644531 -12.597656 6.8125 -12.796875 8.21875 -12.796875 Z M 6.34375 -1.640625 C 7.613281 -1.640625 8.71875 -1.878906 9.65625 -2.359375 C 10.59375 -2.835938 11.320312 -3.457031 11.84375 -4.21875 C 12.363281 -4.976562 12.625 -5.757812 12.625 -6.5625 L 9.671875 -6.28125 C 8.003906 -6.125 6.722656 -5.894531 5.828125 -5.59375 C 4.941406 -5.300781 4.332031 -4.96875 4 -4.59375 C 3.664062 -4.226562 3.492188 -3.84375 3.484375 -3.4375 C 3.460938 -2.945312 3.675781 -2.523438 4.125 -2.171875 C 4.582031 -1.816406 5.320312 -1.640625 6.34375 -1.640625 Z M 6.34375 -1.640625 "/></g></g></g><g fill="#000000" fill-opacity="1"><g transform="translate(239.303043, 254.046412)"><g><path d="M 1.109375 -6.0625 L 1.109375 -6.484375 C 1.109375 -7.722656 1.390625 -8.816406 1.953125 -9.765625 C 2.515625 -10.710938 3.335938 -11.453125 4.421875 -11.984375 C 5.503906 -12.523438 6.8125 -12.796875 8.34375 -12.796875 C 10.4375 -12.796875 12.054688 -12.320312 13.203125 -11.375 C 14.347656 -10.4375 15.046875 -9.21875 15.296875 -7.71875 L 13.09375 -7.71875 C 12.875 -8.726562 12.394531 -9.515625 11.65625 -10.078125 C 10.914062 -10.640625 9.800781 -10.921875 8.3125 -10.921875 C 6.625 -10.921875 5.359375 -10.519531 4.515625 -9.71875 C 3.679688 -8.925781 3.265625 -7.78125 3.265625 -6.28125 C 3.265625 -4.789062 3.679688 -3.644531 4.515625 -2.84375 C 5.359375 -2.039062 6.625 -1.640625 8.3125 -1.640625 C 9.800781 -1.640625 10.914062 -1.914062 11.65625 -2.46875 C 12.394531 -3.03125 12.882812 -3.816406 13.125 -4.828125 L 15.328125 -4.828125 C 15.078125 -3.347656 14.378906 -2.132812 13.234375 -1.1875 C 12.085938 -0.238281 10.457031 0.234375 8.34375 0.234375 C 6.8125 0.234375 5.503906 -0.03125 4.421875 -0.5625 C 3.335938 -1.101562 2.515625 -1.847656 1.953125 -2.796875 C 1.390625 -3.742188 1.109375 -4.832031 1.109375 -6.0625 Z M 1.109375 -6.0625 "/></g></g></g><g fill="#000000" fill-opacity="1"><g transform="translate(255.695717, 254.046412)"><g><path d="M 4.546875 -16.109375 C 4.546875 -16.515625 4.40625 -16.851562 4.125 -17.125 C 3.851562 -17.394531 3.488281 -17.53125 3.03125 -17.53125 C 2.570312 -17.53125 2.203125 -17.394531 1.921875 -17.125 C 1.648438 -16.851562 1.515625 -16.515625 1.515625 -16.109375 C 1.515625 -15.660156 1.648438 -15.300781 1.921875 -15.03125 C 2.203125 -14.769531 2.570312 -14.640625 3.03125 -14.640625 C 3.488281 -14.640625 3.851562 -14.769531 4.125 -15.03125 C 4.40625 -15.300781 4.546875 -15.660156 4.546875 -16.109375 Z M 4.09375 0 L 1.96875 0 L 1.96875 -12.546875 L 4.09375 -12.546875 Z M 4.09375 0 "/></g></g></g><g fill="#000000" fill-opacity="1"><g transform="translate(261.760057, 254.046412)"><g><path d="M 4.140625 -17.296875 L 4.140625 0 L 2.015625 0 L 2.015625 -17.296875 Z M 4.140625 -17.296875 "/></g></g></g></svg>